<svg width="79" height="92" viewBox="0 0 79 92" fill="none" xmlns="http://www.w3.org/2000/svg">
<g clip-path="url(#clip0_5_607)">
<g style="mix-blend-mode:multiply">
<path d="M64.2455 7.37967H31.0965C28.617 7.37967 26.6069 9.39841 26.6069 11.8887V87.491C26.6069 89.9813 28.617 92 31.0965 92H64.2455C66.725 92 68.735 89.9813 68.735 87.491V11.8887C68.735 9.39841 66.725 7.37967 64.2455 7.37967Z" fill="#E4F1FA"/>
</g>
<path d="M59.3468 0H26.1978C23.7183 0 21.7083 2.01874 21.7083 4.50898V80.1113C21.7083 82.6016 23.7183 84.6203 26.1978 84.6203H59.3468C61.8263 84.6203 63.8364 82.6016 63.8364 80.1113V4.50898C63.8364 2.01874 61.8263 0 59.3468 0Z" fill="#86ADC6"/>
<path d="M62.8567 6.96887L62.8567 75.1891C62.8567 77.1349 61.2842 78.7141 59.3468 78.7141H26.1979C24.2605 78.7141 22.688 77.1349 22.688 75.1891L22.688 6.96887C22.688 5.0231 24.2605 3.44385 26.1979 3.44385L59.3468 3.44385C61.2842 3.44385 62.8567 5.0231 62.8567 6.96887Z" fill="#EAEDF1"/>
<path d="M37.8443 79.8752H47.7003C48.5379 79.8752 49.2188 80.559 49.2188 81.4003C49.2188 82.2416 48.5379 82.9254 47.7003 82.9254H37.8443C37.0066 82.9254 36.3257 82.2416 36.3257 81.4003C36.3257 80.559 37.0066 79.8752 37.8443 79.8752Z" fill="#E4F1FA"/>
<path d="M48.8294 2.15734H36.7151C36.4996 2.15734 36.3257 1.98269 36.3257 1.76621C36.3257 1.54974 36.4996 1.37509 36.7151 1.37509H48.8294C49.0449 1.37509 49.2188 1.54974 49.2188 1.76621C49.2188 1.98269 49.0449 2.15734 48.8294 2.15734Z" fill="#E4F1FA"/>
<g style="mix-blend-mode:multiply">
<path d="M14.6272 26.0085C12.8784 26.0085 11.4602 27.4327 11.4602 29.1891V52.7229C11.4602 54.4793 12.8784 55.9035 14.6272 55.9035H22.6878V26.0085H14.6272Z" fill="#DAEDF9"/>
</g>
<g style="mix-blend-mode:multiply">
<path d="M22.6877 26.0085V55.9035H47.2249L50.1396 59.5368L53.8846 55.9035H62.8564V26.0085H22.6877Z" fill="#BED4E3"/>
</g>
<g style="mix-blend-mode:multiply">
<path d="M71.865 26.0085H62.8564V55.9011H71.865C73.6138 55.9011 75.0295 54.4768 75.0295 52.7204V29.1891C75.0295 27.4327 73.6114 26.0085 71.865 26.0085Z" fill="#DAEDF9"/>
</g>
<path d="M73.7339 25.7945C73.5306 25.7945 73.3665 25.6296 73.3665 25.4255C73.3665 22.5203 71.0127 20.1539 68.1201 20.1539C67.9168 20.1539 67.7527 19.9891 67.7527 19.7849C67.7527 19.5808 67.9168 19.416 68.1201 19.416C71.4193 19.416 74.1013 22.112 74.1013 25.4255C74.1013 25.6296 73.9372 25.7945 73.7339 25.7945Z" fill="#9DBED2"/>
<path d="M78.6325 25.7944C78.4292 25.7944 78.2651 25.6296 78.2651 25.4255C78.2651 19.8071 73.7143 15.2341 68.1201 15.2341C67.9168 15.2341 67.7527 15.0693 67.7527 14.8651C67.7527 14.661 67.9168 14.4962 68.1201 14.4962C74.1209 14.4962 78.9999 19.3987 78.9999 25.4255C78.9999 25.6296 78.8358 25.7944 78.6325 25.7944Z" fill="#9DBED2"/>
<path d="M76.1832 25.7945C75.9799 25.7945 75.8158 25.6296 75.8158 25.4255C75.8158 21.1625 72.3623 17.694 68.1201 17.694C67.9168 17.694 67.7527 17.5292 67.7527 17.325C67.7527 17.1209 67.9168 16.9561 68.1201 16.9561C72.7689 16.9561 76.5506 20.7541 76.5506 25.4255C76.5506 25.6296 76.3865 25.7945 76.1832 25.7945Z" fill="#9DBED2"/>
<path d="M10.8799 54.9688C7.58067 54.9688 4.89868 52.2727 4.89868 48.9617C4.89868 48.7576 5.06279 48.5927 5.26608 48.5927C5.46937 48.5927 5.63347 48.7576 5.63347 48.9617C5.63347 51.8669 7.98726 54.2308 10.8799 54.2308C11.0832 54.2308 11.2473 54.3956 11.2473 54.5998C11.2473 54.804 11.0832 54.9688 10.8799 54.9688Z" fill="#9DBED2"/>
<path d="M10.8798 59.8886C4.87902 59.8886 0 54.986 0 48.9617C0 48.7576 0.164104 48.5927 0.367396 48.5927C0.570689 48.5927 0.734793 48.7576 0.734793 48.9617C0.734793 54.5801 5.28561 59.1506 10.8798 59.1506C11.0831 59.1506 11.2472 59.3154 11.2472 59.5196C11.2472 59.7238 11.0831 59.8886 10.8798 59.8886Z" fill="#9DBED2"/>
<path d="M10.8797 57.4287C6.23095 57.4287 2.44922 53.6306 2.44922 48.9617C2.44922 48.7576 2.61332 48.5927 2.81662 48.5927C3.01991 48.5927 3.18401 48.7576 3.18401 48.9617C3.18401 53.2247 6.63754 56.6907 10.8797 56.6907C11.083 56.6907 11.2471 56.8555 11.2471 57.0597C11.2471 57.2639 11.083 57.4287 10.8797 57.4287Z" fill="#9DBED2"/>
<path d="M68.1177 22.2473H10.8798C9.13104 22.2473 7.71289 23.6716 7.71289 25.4279V48.9617C7.71289 50.7181 9.13104 52.1424 10.8798 52.1424H43.4777L50.1398 59.5392V52.1424H68.1177C69.8665 52.1424 71.2822 50.7181 71.2822 48.9617V25.4255C71.2822 23.6691 69.8641 22.2448 68.1177 22.2448V22.2473Z" fill="#AE285D"/>
<path d="M61.7226 32.3378H38.1774C37.2805 32.3378 36.5535 33.0679 36.5535 33.9687V40.4185C36.5535 41.3192 37.2805 42.0494 38.1774 42.0494H61.7226C62.6194 42.0494 63.3465 41.3192 63.3465 40.4185V33.9687C63.3465 33.0679 62.6194 32.3378 61.7226 32.3378Z" fill="#DAEDF9"/>
<path d="M62.8567 34.4606V40.908C62.8567 41.5378 62.3472 42.047 61.7227 42.047H38.1799C37.5529 42.047 37.0459 41.5353 37.0459 40.908V34.4606C37.0459 33.8309 37.5553 33.3217 38.1799 33.3217H61.7202C62.3472 33.3217 62.8542 33.8334 62.8542 34.4606H62.8567Z" fill="white"/>
<g style="mix-blend-mode:multiply">
<path d="M26.7562 35.9366H26.7023V32.077C26.7023 29.8557 24.9021 28.0477 22.6904 28.0477C20.4786 28.0477 18.6784 29.8557 18.6784 32.077V33.9687H20.148V32.077C20.148 30.6675 21.2893 29.5236 22.6904 29.5236C24.0914 29.5236 25.2327 30.6699 25.2327 32.077V35.9366H18.6221C17.6644 35.9366 16.8879 36.7164 16.8879 37.6782V44.4872C16.8879 45.449 17.6644 46.2288 18.6221 46.2288H26.7562C27.7139 46.2288 28.4903 45.449 28.4903 44.4872V37.6782C28.4903 36.7164 27.7139 35.9366 26.7562 35.9366ZM23.2855 41.6484V43.2548C23.2855 43.5868 23.0186 43.855 22.6879 43.855C22.3572 43.855 22.0903 43.5868 22.0903 43.2548V41.6484C21.6151 41.4221 21.2869 40.94 21.2869 40.3767C21.2869 39.5994 21.9139 38.9696 22.6879 38.9696C23.4619 38.9696 24.0889 39.5994 24.0889 40.3767C24.0889 40.94 23.7607 41.4246 23.2855 41.6484Z" fill="#DAEDF9"/>
</g>
<path d="M26.7562 34.7066H26.7023V30.8471C26.7023 28.6258 24.9021 26.8177 22.6904 26.8177C20.4786 26.8177 18.6784 28.6258 18.6784 30.8471V32.7387H20.148V30.8471C20.148 29.4375 21.2893 28.2937 22.6904 28.2937C24.0914 28.2937 25.2327 29.44 25.2327 30.8471V34.7066H18.6221C17.6644 34.7066 16.8879 35.4864 16.8879 36.4482V43.2572C16.8879 44.219 17.6644 44.9988 18.6221 44.9988H26.7562C27.7139 44.9988 28.4903 44.219 28.4903 43.2572V36.4482C28.4903 35.4864 27.7139 34.7066 26.7562 34.7066ZM23.2855 40.4185V42.0248C23.2855 42.3569 23.0186 42.625 22.6879 42.625C22.3572 42.625 22.0903 42.3569 22.0903 42.0248V40.4185C21.6151 40.1922 21.2869 39.71 21.2869 39.1467C21.2869 38.3694 21.9139 37.7397 22.6879 37.7397C23.4619 37.7397 24.0889 38.3694 24.0889 39.1467C24.0889 39.71 23.7607 40.1946 23.2855 40.4185Z" fill="white"/>
<path d="M42.5151 39.87C42.3118 39.87 42.1477 39.7051 42.1477 39.501V34.8838C42.1477 34.6796 42.3118 34.5148 42.5151 34.5148C42.7184 34.5148 42.8825 34.6796 42.8825 34.8838V39.501C42.8825 39.7051 42.7184 39.87 42.5151 39.87Z" fill="#393E41"/>
<path d="M40.5238 38.7163C40.3964 38.7163 40.274 38.6499 40.2054 38.5318C40.105 38.3547 40.1638 38.1308 40.3401 38.0275L44.3202 35.7201C44.4966 35.6193 44.7195 35.6783 44.8223 35.8554C44.9228 36.0325 44.864 36.2564 44.6876 36.3597L40.7075 38.6671C40.6487 38.7015 40.5875 38.7163 40.5238 38.7163Z" fill="#393E41"/>
<path d="M44.5039 38.7163C44.4427 38.7163 44.379 38.7015 44.3202 38.6671L40.3401 36.3597C40.1638 36.2588 40.105 36.0325 40.2054 35.8554C40.3058 35.6783 40.5312 35.6193 40.7075 35.7201L44.6876 38.0275C44.864 38.1284 44.9228 38.3547 44.8223 38.5318C44.7538 38.6499 44.6313 38.7163 44.5039 38.7163Z" fill="#393E41"/>
<path d="M49.9487 39.87C49.7454 39.87 49.5813 39.7051 49.5813 39.501V34.8838C49.5813 34.6796 49.7454 34.5148 49.9487 34.5148C50.152 34.5148 50.3161 34.6796 50.3161 34.8838V39.501C50.3161 39.7051 50.152 39.87 49.9487 39.87Z" fill="#393E41"/>
<path d="M47.9598 38.7163C47.8325 38.7163 47.71 38.6499 47.6414 38.5318C47.541 38.3547 47.5998 38.1308 47.7761 38.0275L51.7563 35.7201C51.9326 35.6193 52.1555 35.6783 52.2584 35.8554C52.3588 36.0325 52.3 36.2564 52.1237 36.3597L48.1435 38.6671C48.0848 38.7015 48.0235 38.7163 47.9598 38.7163Z" fill="#393E41"/>
<path d="M51.94 38.7163C51.8787 38.7163 51.8151 38.7015 51.7563 38.6671L47.7761 36.3597C47.5998 36.2588 47.541 36.0325 47.6414 35.8554C47.7419 35.6783 47.9672 35.6193 48.1435 35.7201L52.1237 38.0275C52.3 38.1284 52.3588 38.3547 52.2584 38.5318C52.1898 38.6499 52.0673 38.7163 51.94 38.7163Z" fill="#393E41"/>
<path d="M57.385 39.87C57.1817 39.87 57.0176 39.7051 57.0176 39.501V34.8838C57.0176 34.6796 57.1817 34.5148 57.385 34.5148C57.5883 34.5148 57.7524 34.6796 57.7524 34.8838V39.501C57.7524 39.7051 57.5883 39.87 57.385 39.87Z" fill="#393E41"/>
<path d="M55.3937 38.7163C55.2663 38.7163 55.1438 38.6499 55.0753 38.5318C54.9748 38.3547 55.0336 38.1308 55.21 38.0275L59.1901 35.7201C59.3665 35.6193 59.5893 35.6783 59.6922 35.8554C59.7926 36.0325 59.7339 36.2564 59.5575 36.3597L55.5774 38.6671C55.5186 38.7015 55.4574 38.7163 55.3937 38.7163Z" fill="#393E41"/>
<path d="M59.3762 38.7163C59.315 38.7163 59.2513 38.7015 59.1925 38.6671L55.2124 36.3597C55.0361 36.2588 54.9773 36.0325 55.0777 35.8554C55.1781 35.6783 55.4035 35.6193 55.5798 35.7201L59.5599 38.0275C59.7363 38.1284 59.7951 38.3547 59.6947 38.5318C59.6261 38.6499 59.5036 38.7163 59.3762 38.7163Z" fill="#393E41"/>
</g>
<defs>
<clipPath id="clip0_5_607">
<rect width="79" height="92" fill="white"/>
</clipPath>
</defs>
</svg>
