<svg width="16" height="16" viewBox="0 0 16 16" fill="none" xmlns="http://www.w3.org/2000/svg">
<path d="M9.43822 2.85274L10.5382 5.05274C10.6882 5.35899 11.0882 5.65274 11.4257 5.70899L13.4195 6.04024C14.6945 6.25274 14.9945 7.17774 14.0757 8.09024L12.5257 9.64024C12.2632 9.90274 12.1195 10.409 12.2007 10.7715L12.6445 12.6902C12.9945 14.209 12.1882 14.7965 10.8445 14.0027L8.97572 12.8965C8.63822 12.6965 8.08197 12.6965 7.73822 12.8965L5.86947 14.0027C4.53197 14.7965 3.71947 14.2027 4.06947 12.6902L4.51322 10.7715C4.59447 10.409 4.45072 9.90274 4.18822 9.64024L2.63822 8.09024C1.72572 7.17774 2.01947 6.25274 3.29447 6.04024L5.28822 5.70899C5.61947 5.65274 6.01947 5.35899 6.16947 5.05274L7.26947 2.85274C7.86947 1.65899 8.84447 1.65899 9.43822 2.85274Z" stroke="#AE285D" stroke-width="1.5" stroke-linecap="round" stroke-linejoin="round"/>
</svg>
