<svg width="316" height="50" viewBox="0 0 316 50" fill="none" xmlns="http://www.w3.org/2000/svg">
<path d="M1.05682 43.6289V34.9016H6.28977V35.8391H2.11364V38.788H5.89773V39.7255H2.11364V43.6289H1.05682ZM7.92502 43.6289V37.0834H8.93071V43.6289H7.92502ZM8.43639 35.9925C8.24036 35.9925 8.07133 35.9258 7.92928 35.7922C7.79008 35.6587 7.72048 35.4982 7.72048 35.3107C7.72048 35.1232 7.79008 34.9627 7.92928 34.8292C8.07133 34.6956 8.24036 34.6289 8.43639 34.6289C8.63241 34.6289 8.80002 34.6956 8.93923 34.8292C9.08127 34.9627 9.1523 35.1232 9.1523 35.3107C9.1523 35.4982 9.08127 35.6587 8.93923 35.7922C8.80002 35.9258 8.63241 35.9925 8.43639 35.9925ZM11.74 34.9016V43.6289H10.7343V34.9016H11.74ZM14.5492 34.9016V43.6289H13.5435V34.9016H14.5492ZM19.8258 43.6289V34.9016H25.0587V35.8391H20.8826V38.788H24.6667V39.7255H20.8826V43.6289H19.8258ZM28.8726 43.7652C28.2817 43.7652 27.7632 43.6246 27.3172 43.3434C26.874 43.0621 26.5274 42.6686 26.2774 42.163C26.0303 41.6573 25.9067 41.0664 25.9067 40.3902C25.9067 39.7084 26.0303 39.1133 26.2774 38.6047C26.5274 38.0962 26.874 37.7013 27.3172 37.4201C27.7632 37.1388 28.2817 36.9982 28.8726 36.9982C29.4635 36.9982 29.9805 37.1388 30.4237 37.4201C30.8697 37.7013 31.2163 38.0962 31.4635 38.6047C31.7135 39.1133 31.8385 39.7084 31.8385 40.3902C31.8385 41.0664 31.7135 41.6573 31.4635 42.163C31.2163 42.6686 30.8697 43.0621 30.4237 43.3434C29.9805 43.6246 29.4635 43.7652 28.8726 43.7652ZM28.8726 42.8618C29.3214 42.8618 29.6908 42.7468 29.9805 42.5167C30.2703 42.2865 30.4848 41.984 30.624 41.609C30.7632 41.234 30.8328 40.8277 30.8328 40.3902C30.8328 39.9527 30.7632 39.5451 30.624 39.1672C30.4848 38.7894 30.2703 38.484 29.9805 38.251C29.6908 38.0181 29.3214 37.9016 28.8726 37.9016C28.4237 37.9016 28.0544 38.0181 27.7646 38.251C27.4749 38.484 27.2604 38.7894 27.1212 39.1672C26.982 39.5451 26.9124 39.9527 26.9124 40.3902C26.9124 40.8277 26.982 41.234 27.1212 41.609C27.2604 41.984 27.4749 42.2865 27.7646 42.5167C28.0544 42.7468 28.4237 42.8618 28.8726 42.8618ZM33.3352 43.6289V37.0834H34.3068V38.0721H34.375C34.4943 37.7482 34.7102 37.4854 35.0227 37.2837C35.3352 37.082 35.6875 36.9811 36.0796 36.9811C36.1534 36.9811 36.2458 36.9826 36.3566 36.9854C36.4674 36.9883 36.5512 36.9925 36.608 36.9982V38.0209C36.5739 38.0124 36.4958 37.9996 36.3736 37.9826C36.2543 37.9627 36.1279 37.9527 35.9943 37.9527C35.6762 37.9527 35.3921 38.0195 35.1421 38.153C34.8949 38.2837 34.6989 38.4655 34.554 38.6985C34.412 38.9286 34.3409 39.1914 34.3409 39.4868V43.6289H33.3352ZM37.7617 43.6289V37.0834H38.7333V38.1061H38.8185C38.9549 37.7567 39.175 37.4854 39.479 37.2922C39.783 37.0962 40.1481 36.9982 40.5742 36.9982C41.006 36.9982 41.3654 37.0962 41.6523 37.2922C41.9421 37.4854 42.1679 37.7567 42.3299 38.1061H42.3981C42.5657 37.7681 42.8171 37.4996 43.1523 37.3008C43.4875 37.099 43.8895 36.9982 44.3583 36.9982C44.9435 36.9982 45.4222 37.1814 45.7944 37.5479C46.1665 37.9115 46.3526 38.4783 46.3526 39.2482V43.6289H45.3469V39.2482C45.3469 38.7652 45.2148 38.4201 44.9506 38.2127C44.6864 38.0053 44.3753 37.9016 44.0174 37.9016C43.5571 37.9016 43.2006 38.0408 42.9478 38.3192C42.6949 38.5948 42.5685 38.9442 42.5685 39.3675V43.6289H41.5458V39.1459C41.5458 38.7738 41.425 38.474 41.1836 38.2468C40.9421 38.0167 40.631 37.9016 40.2503 37.9016C39.989 37.9016 39.7446 37.9712 39.5174 38.1104C39.2929 38.2496 39.1111 38.4428 38.9719 38.69C38.8356 38.9343 38.7674 39.2169 38.7674 39.538V43.6289H37.7617Z" fill="#031D5B"/>
<path d="M106.057 43.6289V34.9016H111.324V35.8391H107.114V38.788H111.051V39.7255H107.114V42.6914H111.392V43.6289H106.057ZM114.06 39.6914V43.6289H113.054V37.0835H114.026V38.1062H114.111C114.264 37.7738 114.497 37.5067 114.81 37.305C115.122 37.1005 115.526 36.9982 116.02 36.9982C116.463 36.9982 116.851 37.0891 117.183 37.271C117.516 37.4499 117.774 37.7227 117.959 38.0891C118.143 38.4528 118.236 38.913 118.236 39.4698V43.6289H117.23V39.538C117.23 39.0238 117.097 38.6232 116.829 38.3363C116.562 38.0465 116.196 37.9016 115.73 37.9016C115.409 37.9016 115.122 37.9712 114.869 38.1104C114.619 38.2496 114.422 38.4528 114.277 38.7198C114.132 38.9869 114.06 39.3107 114.06 39.6914ZM122.882 37.0835V37.9357H119.49V37.0835H122.882ZM120.478 35.5153H121.484V41.7539C121.484 42.038 121.525 42.2511 121.608 42.3931C121.693 42.5323 121.801 42.6261 121.931 42.6744C122.065 42.7198 122.206 42.7425 122.353 42.7425C122.464 42.7425 122.555 42.7369 122.626 42.7255C122.697 42.7113 122.754 42.6999 122.796 42.6914L123.001 43.5948C122.933 43.6204 122.838 43.646 122.715 43.6715C122.593 43.6999 122.438 43.7141 122.251 43.7141C121.967 43.7141 121.688 43.6531 121.416 43.5309C121.146 43.4087 120.921 43.2227 120.742 42.9727C120.566 42.7227 120.478 42.4073 120.478 42.0266V35.5153ZM127.03 43.7653C126.399 43.7653 125.855 43.6261 125.398 43.3477C124.943 43.0664 124.593 42.6744 124.345 42.1715C124.101 41.6658 123.979 41.0778 123.979 40.4073C123.979 39.7369 124.101 39.146 124.345 38.6346C124.593 38.1204 124.936 37.7198 125.377 37.4329C125.82 37.1431 126.337 36.9982 126.928 36.9982C127.269 36.9982 127.605 37.055 127.938 37.1687C128.27 37.2823 128.573 37.467 128.845 37.7227C129.118 37.9755 129.335 38.3107 129.497 38.7283C129.659 39.146 129.74 39.6602 129.74 40.271V40.6971H124.695V39.8278H128.718C128.718 39.4585 128.644 39.1289 128.496 38.8391C128.351 38.5494 128.144 38.3207 127.874 38.1531C127.607 37.9854 127.291 37.9016 126.928 37.9016C126.527 37.9016 126.181 38.0011 125.888 38.1999C125.598 38.396 125.375 38.6516 125.219 38.967C125.063 39.2823 124.985 39.6204 124.985 39.9812V40.5607C124.985 41.055 125.07 41.4741 125.24 41.8178C125.414 42.1587 125.654 42.4187 125.96 42.5977C126.267 42.7738 126.624 42.8619 127.03 42.8619C127.294 42.8619 127.533 42.8249 127.746 42.7511C127.962 42.6744 128.148 42.5607 128.304 42.4102C128.46 42.2567 128.581 42.0664 128.666 41.8391L129.638 42.1119C129.536 42.4414 129.364 42.7312 129.122 42.9812C128.881 43.2283 128.583 43.4215 128.227 43.5607C127.872 43.6971 127.473 43.7653 127.03 43.7653ZM131.232 43.6289V37.0835H132.203V38.0721H132.271C132.391 37.7482 132.607 37.4854 132.919 37.2837C133.232 37.082 133.584 36.9812 133.976 36.9812C134.05 36.9812 134.142 36.9826 134.253 36.9854C134.364 36.9883 134.448 36.9925 134.504 36.9982V38.021C134.47 38.0124 134.392 37.9996 134.27 37.9826C134.151 37.9627 134.024 37.9528 133.891 37.9528C133.573 37.9528 133.289 38.0195 133.039 38.1531C132.791 38.2837 132.595 38.4656 132.45 38.6985C132.308 38.9286 132.237 39.1914 132.237 39.4869V43.6289H131.232ZM146.495 39.2653C146.495 40.1857 146.329 40.9812 145.996 41.6516C145.664 42.3221 145.208 42.8391 144.628 43.2028C144.049 43.5664 143.387 43.7482 142.642 43.7482C141.898 43.7482 141.236 43.5664 140.657 43.2028C140.077 42.8391 139.621 42.3221 139.289 41.6516C138.956 40.9812 138.79 40.1857 138.79 39.2653C138.79 38.3448 138.956 37.5494 139.289 36.8789C139.621 36.2085 140.077 35.6914 140.657 35.3278C141.236 34.9641 141.898 34.7823 142.642 34.7823C143.387 34.7823 144.049 34.9641 144.628 35.3278C145.208 35.6914 145.664 36.2085 145.996 36.8789C146.329 37.5494 146.495 38.3448 146.495 39.2653ZM145.472 39.2653C145.472 38.5096 145.346 37.8718 145.093 37.3519C144.843 36.832 144.503 36.4386 144.074 36.1715C143.648 35.9045 143.171 35.771 142.642 35.771C142.114 35.771 141.635 35.9045 141.206 36.1715C140.78 36.4386 140.441 36.832 140.188 37.3519C139.938 37.8718 139.813 38.5096 139.813 39.2653C139.813 40.021 139.938 40.6587 140.188 41.1786C140.441 41.6985 140.78 42.092 141.206 42.359C141.635 42.6261 142.114 42.7596 142.642 42.7596C143.171 42.7596 143.648 42.6261 144.074 42.359C144.503 42.092 144.843 41.6985 145.093 41.1786C145.346 40.6587 145.472 40.021 145.472 39.2653ZM147.393 35.8391V34.9016H153.938V35.8391H151.194V43.6289H150.137V35.8391H147.393ZM155.531 43.6289V34.9016H158.48C159.164 34.9016 159.724 35.0252 160.159 35.2724C160.596 35.5167 160.92 35.8477 161.13 36.2653C161.341 36.6829 161.446 37.1488 161.446 37.663C161.446 38.1772 161.341 38.6445 161.13 39.065C160.923 39.4854 160.602 39.8207 160.167 40.0707C159.733 40.3178 159.176 40.4414 158.497 40.4414H156.383V39.5039H158.463C158.931 39.5039 159.308 39.4229 159.592 39.261C159.876 39.0991 160.082 38.8803 160.21 38.6048C160.341 38.3263 160.406 38.0124 160.406 37.663C160.406 37.3136 160.341 37.0011 160.21 36.7255C160.082 36.4499 159.875 36.234 159.588 36.0778C159.301 35.9187 158.92 35.8391 158.446 35.8391H156.588V43.6289H155.531Z" fill="#031D5B"/>
<ellipse cx="20" cy="13.5578" rx="10" ry="10.0444" fill="#AE285D"/>
<path d="M21.6624 8.31818V18.5H19.5097V10.3615H19.4501L17.1184 11.8232V9.91406L19.639 8.31818H21.6624Z" fill="white"/>
<ellipse cx="132" cy="13.5578" rx="10" ry="10.0444" fill="#AE285D"/>
<path d="M128.492 18.5V16.9489L132.116 13.593C132.425 13.2947 132.683 13.0263 132.892 12.7876C133.104 12.549 133.265 12.3153 133.374 12.0866C133.484 11.8546 133.538 11.6044 133.538 11.3359C133.538 11.0376 133.47 10.7808 133.334 10.5653C133.198 10.3466 133.013 10.1792 132.778 10.0632C132.542 9.94389 132.275 9.88423 131.977 9.88423C131.666 9.88423 131.394 9.94721 131.162 10.0732C130.93 10.1991 130.751 10.3797 130.625 10.6151C130.499 10.8504 130.436 11.1304 130.436 11.4553H128.393C128.393 10.7891 128.543 10.2107 128.845 9.72017C129.147 9.22964 129.569 8.85014 130.113 8.58168C130.656 8.31321 131.283 8.17898 131.992 8.17898C132.721 8.17898 133.356 8.30824 133.896 8.56676C134.44 8.82197 134.862 9.17661 135.164 9.63068C135.466 10.0848 135.616 10.6051 135.616 11.1918C135.616 11.5762 135.54 11.9557 135.388 12.3303C135.238 12.7048 134.972 13.1207 134.587 13.5781C134.203 14.0322 133.661 14.5774 132.961 15.2138L131.475 16.6705V16.7401H135.751V18.5H128.492Z" fill="white"/>
<line x1="30" y1="14.0622" x2="122" y2="14.0622" stroke="#AE285D"/>
<line x1="142" y1="13.0578" x2="232" y2="13.0578" stroke="#AE285D"/>
<path d="M193.023 36.25C192.929 35.9631 192.805 35.706 192.652 35.4787C192.501 35.2486 192.321 35.0526 192.111 34.8906C191.903 34.7287 191.668 34.6051 191.403 34.5199C191.139 34.4347 190.849 34.392 190.534 34.392C190.017 34.392 189.547 34.5256 189.124 34.7926C188.7 35.0597 188.364 35.4531 188.114 35.973C187.864 36.4929 187.739 37.1307 187.739 37.8864C187.739 38.642 187.865 39.2798 188.118 39.7997C188.371 40.3196 188.713 40.7131 189.145 40.9801C189.577 41.2472 190.063 41.3807 190.602 41.3807C191.102 41.3807 191.543 41.2741 191.923 41.0611C192.307 40.8452 192.605 40.5412 192.818 40.1491C193.034 39.7543 193.142 39.2898 193.142 38.7557L193.466 38.8239H190.841V37.8864H194.165V38.8239C194.165 39.5426 194.011 40.1676 193.705 40.6989C193.401 41.2301 192.98 41.642 192.443 41.9347C191.909 42.2244 191.295 42.3693 190.602 42.3693C189.83 42.3693 189.151 42.1875 188.565 41.8239C187.983 41.4602 187.528 40.9432 187.202 40.2727C186.878 39.6023 186.716 38.8068 186.716 37.8864C186.716 37.196 186.808 36.5753 186.993 36.0241C187.18 35.4702 187.445 34.9986 187.786 34.6094C188.126 34.2202 188.53 33.9219 188.996 33.7145C189.462 33.5071 189.974 33.4034 190.534 33.4034C190.994 33.4034 191.423 33.473 191.821 33.6122C192.222 33.7486 192.578 33.9432 192.891 34.196C193.206 34.446 193.469 34.7457 193.679 35.0952C193.889 35.4418 194.034 35.8267 194.114 36.25H193.023ZM198.525 42.3864C197.894 42.3864 197.35 42.2472 196.893 41.9688C196.438 41.6875 196.088 41.2955 195.84 40.7926C195.596 40.2869 195.474 39.6989 195.474 39.0284C195.474 38.358 195.596 37.767 195.84 37.2557C196.088 36.7415 196.431 36.3409 196.872 36.054C197.315 35.7642 197.832 35.6193 198.423 35.6193C198.764 35.6193 199.1 35.6761 199.433 35.7898C199.765 35.9034 200.068 36.0881 200.34 36.3438C200.613 36.5966 200.831 36.9318 200.992 37.3494C201.154 37.767 201.235 38.2812 201.235 38.892V39.3182H196.19V38.4489H200.213C200.213 38.0795 200.139 37.75 199.991 37.4602C199.846 37.1705 199.639 36.9418 199.369 36.7741C199.102 36.6065 198.787 36.5227 198.423 36.5227C198.022 36.5227 197.676 36.6222 197.383 36.821C197.093 37.017 196.87 37.2727 196.714 37.5881C196.558 37.9034 196.48 38.2415 196.48 38.6023V39.1818C196.48 39.6761 196.565 40.0952 196.735 40.4389C196.909 40.7798 197.149 41.0398 197.456 41.2188C197.762 41.3949 198.119 41.483 198.525 41.483C198.789 41.483 199.028 41.446 199.241 41.3722C199.457 41.2955 199.643 41.1818 199.799 41.0312C199.956 40.8778 200.076 40.6875 200.162 40.4602L201.133 40.733C201.031 41.0625 200.859 41.3523 200.617 41.6023C200.376 41.8494 200.078 42.0426 199.723 42.1818C199.367 42.3182 198.968 42.3864 198.525 42.3864ZM205.554 35.7045V36.5568H202.162V35.7045H205.554ZM203.151 34.1364H204.156V40.375C204.156 40.6591 204.198 40.8722 204.28 41.0142C204.365 41.1534 204.473 41.2472 204.604 41.2955C204.737 41.3409 204.878 41.3636 205.026 41.3636C205.137 41.3636 205.227 41.358 205.299 41.3466C205.37 41.3324 205.426 41.321 205.469 41.3125L205.674 42.2159C205.605 42.2415 205.51 42.267 205.388 42.2926C205.266 42.321 205.111 42.3352 204.924 42.3352C204.639 42.3352 204.361 42.2741 204.088 42.152C203.818 42.0298 203.594 41.8438 203.415 41.5938C203.239 41.3438 203.151 41.0284 203.151 40.6477V34.1364ZM210.975 44.7045C210.804 44.7045 210.652 44.6903 210.519 44.6619C210.385 44.6364 210.293 44.6108 210.242 44.5852L210.497 43.6989C210.742 43.7614 210.957 43.7841 211.145 43.767C211.332 43.75 211.499 43.6662 211.644 43.5156C211.791 43.3679 211.926 43.1278 212.048 42.7955L212.236 42.2841L209.815 35.7045H210.906L212.713 40.9205H212.781L214.588 35.7045H215.679L212.901 43.2045C212.776 43.5426 212.621 43.8224 212.436 44.044C212.251 44.2685 212.037 44.4347 211.793 44.5426C211.551 44.6506 211.278 44.7045 210.975 44.7045ZM219.374 42.3864C218.783 42.3864 218.264 42.2457 217.818 41.9645C217.375 41.6832 217.028 41.2898 216.778 40.7841C216.531 40.2784 216.408 39.6875 216.408 39.0114C216.408 38.3295 216.531 37.7344 216.778 37.2259C217.028 36.7173 217.375 36.3224 217.818 36.0412C218.264 35.7599 218.783 35.6193 219.374 35.6193C219.964 35.6193 220.482 35.7599 220.925 36.0412C221.371 36.3224 221.717 36.7173 221.964 37.2259C222.214 37.7344 222.339 38.3295 222.339 39.0114C222.339 39.6875 222.214 40.2784 221.964 40.7841C221.717 41.2898 221.371 41.6832 220.925 41.9645C220.482 42.2457 219.964 42.3864 219.374 42.3864ZM219.374 41.483C219.822 41.483 220.192 41.3679 220.482 41.1378C220.771 40.9077 220.986 40.6051 221.125 40.2301C221.264 39.8551 221.334 39.4489 221.334 39.0114C221.334 38.5739 221.264 38.1662 221.125 37.7884C220.986 37.4105 220.771 37.1051 220.482 36.8722C220.192 36.6392 219.822 36.5227 219.374 36.5227C218.925 36.5227 218.555 36.6392 218.266 36.8722C217.976 37.1051 217.761 37.4105 217.622 37.7884C217.483 38.1662 217.413 38.5739 217.413 39.0114C217.413 39.4489 217.483 39.8551 217.622 40.2301C217.761 40.6051 217.976 40.9077 218.266 41.1378C218.555 41.3679 218.925 41.483 219.374 41.483ZM227.942 39.5739V35.7045H228.948V42.25H227.942V41.142H227.874C227.72 41.4744 227.482 41.7571 227.158 41.9901C226.834 42.2202 226.425 42.3352 225.931 42.3352C225.522 42.3352 225.158 42.2457 224.84 42.0668C224.522 41.8849 224.272 41.6122 224.09 41.2486C223.908 40.8821 223.817 40.4205 223.817 39.8636V35.7045H224.823V39.7955C224.823 40.2727 224.956 40.6534 225.223 40.9375C225.493 41.2216 225.837 41.3636 226.255 41.3636C226.505 41.3636 226.759 41.2997 227.017 41.1719C227.279 41.044 227.497 40.848 227.674 40.5838C227.853 40.3196 227.942 39.983 227.942 39.5739ZM230.732 42.25V35.7045H231.704V36.6932H231.772C231.891 36.3693 232.107 36.1065 232.42 35.9048C232.732 35.7031 233.084 35.6023 233.476 35.6023C233.55 35.6023 233.643 35.6037 233.753 35.6065C233.864 35.6094 233.948 35.6136 234.005 35.6193V36.642C233.971 36.6335 233.893 36.6207 233.77 36.6037C233.651 36.5838 233.525 36.5739 233.391 36.5739C233.073 36.5739 232.789 36.6406 232.539 36.7741C232.292 36.9048 232.096 37.0866 231.951 37.3196C231.809 37.5497 231.738 37.8125 231.738 38.108V42.25H230.732ZM238.951 42.25H237.843L241.048 33.5227H242.139L245.343 42.25H244.235L241.627 34.9034H241.559L238.951 42.25ZM239.36 38.8409H243.826V39.7784H239.36V38.8409ZM246.509 44.7045V35.7045H247.48V36.7443H247.599C247.673 36.6307 247.776 36.4858 247.906 36.3097C248.04 36.1307 248.23 35.9716 248.477 35.8324C248.727 35.6903 249.065 35.6193 249.491 35.6193C250.043 35.6193 250.528 35.7571 250.949 36.0327C251.369 36.3082 251.697 36.6989 251.933 37.2045C252.169 37.7102 252.287 38.3068 252.287 38.9943C252.287 39.6875 252.169 40.2884 251.933 40.7969C251.697 41.3026 251.371 41.6946 250.953 41.973C250.536 42.2486 250.054 42.3864 249.509 42.3864C249.088 42.3864 248.751 42.3168 248.499 42.1776C248.246 42.0355 248.051 41.875 247.915 41.696C247.778 41.5142 247.673 41.3636 247.599 41.2443H247.514V44.7045H246.509ZM247.497 38.9773C247.497 39.4716 247.57 39.9077 247.714 40.2855C247.859 40.6605 248.071 40.9545 248.349 41.1676C248.628 41.3778 248.969 41.483 249.372 41.483C249.793 41.483 250.143 41.3722 250.425 41.1506C250.709 40.9261 250.922 40.625 251.064 40.2472C251.209 39.8665 251.281 39.4432 251.281 38.9773C251.281 38.517 251.21 38.1023 251.068 37.733C250.929 37.3608 250.717 37.0668 250.433 36.8509C250.152 36.6321 249.798 36.5227 249.372 36.5227C248.963 36.5227 248.619 36.6264 248.341 36.8338C248.062 37.0384 247.852 37.3253 247.71 37.6946C247.568 38.0611 247.497 38.4886 247.497 38.9773ZM253.763 44.7045V35.7045H254.735V36.7443H254.854C254.928 36.6307 255.03 36.4858 255.161 36.3097C255.295 36.1307 255.485 35.9716 255.732 35.8324C255.982 35.6903 256.32 35.6193 256.746 35.6193C257.298 35.6193 257.783 35.7571 258.204 36.0327C258.624 36.3082 258.952 36.6989 259.188 37.2045C259.424 37.7102 259.542 38.3068 259.542 38.9943C259.542 39.6875 259.424 40.2884 259.188 40.7969C258.952 41.3026 258.626 41.6946 258.208 41.973C257.79 42.2486 257.309 42.3864 256.763 42.3864C256.343 42.3864 256.006 42.3168 255.753 42.1776C255.501 42.0355 255.306 41.875 255.17 41.696C255.033 41.5142 254.928 41.3636 254.854 41.2443H254.769V44.7045H253.763ZM254.752 38.9773C254.752 39.4716 254.824 39.9077 254.969 40.2855C255.114 40.6605 255.326 40.9545 255.604 41.1676C255.883 41.3778 256.224 41.483 256.627 41.483C257.048 41.483 257.398 41.3722 257.68 41.1506C257.964 40.9261 258.177 40.625 258.319 40.2472C258.464 39.8665 258.536 39.4432 258.536 38.9773C258.536 38.517 258.465 38.1023 258.323 37.733C258.184 37.3608 257.972 37.0668 257.688 36.8509C257.407 36.6321 257.053 36.5227 256.627 36.5227C256.218 36.5227 255.874 36.6264 255.596 36.8338C255.317 37.0384 255.107 37.3253 254.965 37.6946C254.823 38.0611 254.752 38.4886 254.752 38.9773ZM262.024 33.5227V42.25H261.018V33.5227H262.024ZM263.808 42.25V35.7045H264.814V42.25H263.808ZM264.32 34.6136C264.124 34.6136 263.955 34.5469 263.813 34.4134C263.673 34.2798 263.604 34.1193 263.604 33.9318C263.604 33.7443 263.673 33.5838 263.813 33.4503C263.955 33.3168 264.124 33.25 264.32 33.25C264.516 33.25 264.683 33.3168 264.823 33.4503C264.965 33.5838 265.036 33.7443 265.036 33.9318C265.036 34.1193 264.965 34.2798 264.823 34.4134C264.683 34.5469 264.516 34.6136 264.32 34.6136ZM269.258 42.3864C268.644 42.3864 268.115 42.2415 267.672 41.9517C267.229 41.6619 266.888 41.2628 266.65 40.7543C266.411 40.2457 266.292 39.6648 266.292 39.0114C266.292 38.3466 266.414 37.7599 266.658 37.2514C266.905 36.7401 267.249 36.3409 267.689 36.054C268.133 35.7642 268.65 35.6193 269.24 35.6193C269.701 35.6193 270.115 35.7045 270.485 35.875C270.854 36.0455 271.157 36.2841 271.392 36.5909C271.628 36.8977 271.775 37.2557 271.831 37.6648H270.826C270.749 37.3665 270.579 37.1023 270.314 36.8722C270.053 36.6392 269.701 36.5227 269.258 36.5227C268.865 36.5227 268.522 36.625 268.226 36.8295C267.934 37.0312 267.705 37.3168 267.54 37.6861C267.378 38.0526 267.297 38.483 267.297 38.9773C267.297 39.483 267.377 39.9233 267.536 40.2983C267.698 40.6733 267.925 40.9645 268.218 41.1719C268.513 41.3793 268.86 41.483 269.258 41.483C269.519 41.483 269.756 41.4375 269.969 41.3466C270.182 41.2557 270.363 41.125 270.51 40.9545C270.658 40.7841 270.763 40.5795 270.826 40.3409H271.831C271.775 40.7273 271.634 41.0753 271.41 41.3849C271.188 41.6918 270.894 41.9361 270.527 42.1179C270.164 42.2969 269.74 42.3864 269.258 42.3864ZM275.17 42.4034C274.755 42.4034 274.379 42.3253 274.041 42.169C273.703 42.0099 273.434 41.7812 273.235 41.483C273.037 41.1818 272.937 40.8182 272.937 40.392C272.937 40.017 273.011 39.7131 273.159 39.4801C273.306 39.2443 273.504 39.0597 273.751 38.9261C273.998 38.7926 274.271 38.6932 274.569 38.6278C274.87 38.5597 275.173 38.5057 275.477 38.4659C275.875 38.4148 276.197 38.3764 276.444 38.3509C276.694 38.3224 276.876 38.2756 276.99 38.2102C277.106 38.1449 277.164 38.0312 277.164 37.8693V37.8352C277.164 37.4148 277.049 37.0881 276.819 36.8551C276.592 36.6222 276.247 36.5057 275.784 36.5057C275.304 36.5057 274.927 36.6108 274.654 36.821C274.382 37.0312 274.19 37.2557 274.079 37.4943L273.125 37.1534C273.295 36.7557 273.522 36.446 273.806 36.2244C274.093 36 274.406 35.8437 274.744 35.7557C275.085 35.6648 275.42 35.6193 275.75 35.6193C275.96 35.6193 276.201 35.6449 276.474 35.696C276.75 35.7443 277.015 35.8452 277.271 35.9986C277.529 36.152 277.744 36.3835 277.914 36.6932C278.085 37.0028 278.17 37.4176 278.17 37.9375V42.25H277.164V41.3636H277.113C277.045 41.5057 276.931 41.6577 276.772 41.8196C276.613 41.9815 276.402 42.1193 276.137 42.233C275.873 42.3466 275.551 42.4034 275.17 42.4034ZM275.324 41.5C275.721 41.5 276.056 41.4219 276.329 41.2656C276.605 41.1094 276.812 40.9077 276.951 40.6605C277.093 40.4134 277.164 40.1534 277.164 39.8807V38.9602C277.122 39.0114 277.028 39.0582 276.883 39.1009C276.741 39.1406 276.576 39.1761 276.389 39.2074C276.204 39.2358 276.024 39.2614 275.848 39.2841C275.674 39.304 275.534 39.321 275.426 39.3352C275.164 39.3693 274.92 39.4247 274.693 39.5014C274.468 39.5753 274.287 39.6875 274.147 39.8381C274.011 39.9858 273.943 40.1875 273.943 40.4432C273.943 40.7926 274.072 41.0568 274.331 41.2358C274.592 41.4119 274.923 41.5 275.324 41.5ZM282.795 35.7045V36.5568H279.403V35.7045H282.795ZM280.391 34.1364H281.397V40.375C281.397 40.6591 281.438 40.8722 281.521 41.0142C281.606 41.1534 281.714 41.2472 281.844 41.2955C281.978 41.3409 282.119 41.3636 282.266 41.3636C282.377 41.3636 282.468 41.358 282.539 41.3466C282.61 41.3324 282.667 41.321 282.709 41.3125L282.914 42.2159C282.846 42.2415 282.751 42.267 282.628 42.2926C282.506 42.321 282.351 42.3352 282.164 42.3352C281.88 42.3352 281.601 42.2741 281.329 42.152C281.059 42.0298 280.834 41.8438 280.655 41.5938C280.479 41.3438 280.391 41.0284 280.391 40.6477V34.1364ZM284.25 42.25V35.7045H285.256V42.25H284.25ZM284.761 34.6136C284.565 34.6136 284.396 34.5469 284.254 34.4134C284.115 34.2798 284.045 34.1193 284.045 33.9318C284.045 33.7443 284.115 33.5838 284.254 33.4503C284.396 33.3168 284.565 33.25 284.761 33.25C284.957 33.25 285.125 33.3168 285.264 33.4503C285.406 33.5838 285.477 33.7443 285.477 33.9318C285.477 34.1193 285.406 34.2798 285.264 34.4134C285.125 34.5469 284.957 34.6136 284.761 34.6136ZM289.699 42.3864C289.108 42.3864 288.59 42.2457 288.144 41.9645C287.7 41.6832 287.354 41.2898 287.104 40.7841C286.857 40.2784 286.733 39.6875 286.733 39.0114C286.733 38.3295 286.857 37.7344 287.104 37.2259C287.354 36.7173 287.7 36.3224 288.144 36.0412C288.59 35.7599 289.108 35.6193 289.699 35.6193C290.29 35.6193 290.807 35.7599 291.25 36.0412C291.696 36.3224 292.043 36.7173 292.29 37.2259C292.54 37.7344 292.665 38.3295 292.665 39.0114C292.665 39.6875 292.54 40.2784 292.29 40.7841C292.043 41.2898 291.696 41.6832 291.25 41.9645C290.807 42.2457 290.29 42.3864 289.699 42.3864ZM289.699 41.483C290.148 41.483 290.517 41.3679 290.807 41.1378C291.097 40.9077 291.311 40.6051 291.45 40.2301C291.59 39.8551 291.659 39.4489 291.659 39.0114C291.659 38.5739 291.59 38.1662 291.45 37.7884C291.311 37.4105 291.097 37.1051 290.807 36.8722C290.517 36.6392 290.148 36.5227 289.699 36.5227C289.25 36.5227 288.881 36.6392 288.591 36.8722C288.301 37.1051 288.087 37.4105 287.948 37.7884C287.808 38.1662 287.739 38.5739 287.739 39.0114C287.739 39.4489 287.808 39.8551 287.948 40.2301C288.087 40.6051 288.301 40.9077 288.591 41.1378C288.881 41.3679 289.25 41.483 289.699 41.483ZM295.148 38.3125V42.25H294.142V35.7045H295.114V36.7273H295.199C295.353 36.3949 295.586 36.1278 295.898 35.9261C296.211 35.7216 296.614 35.6193 297.108 35.6193C297.552 35.6193 297.939 35.7102 298.272 35.892C298.604 36.071 298.863 36.3438 299.047 36.7102C299.232 37.0739 299.324 37.5341 299.324 38.0909V42.25H298.319V38.1591C298.319 37.6449 298.185 37.2443 297.918 36.9574C297.651 36.6676 297.285 36.5227 296.819 36.5227C296.498 36.5227 296.211 36.5923 295.958 36.7315C295.708 36.8707 295.51 37.0739 295.365 37.3409C295.221 37.608 295.148 37.9318 295.148 38.3125ZM305.615 33.5227V42.25H304.558V33.5227H305.615ZM310.37 42.25H307.676V33.5227H310.489C311.335 33.5227 312.06 33.6974 312.662 34.0469C313.264 34.3935 313.726 34.892 314.047 35.5426C314.368 36.1903 314.529 36.9659 314.529 37.8693C314.529 38.7784 314.367 39.5611 314.043 40.2173C313.719 40.8707 313.247 41.3736 312.628 41.7259C312.009 42.0753 311.256 42.25 310.37 42.25ZM308.733 41.3125H310.301C311.023 41.3125 311.621 41.1733 312.095 40.8949C312.57 40.6165 312.923 40.2202 313.156 39.706C313.389 39.1918 313.506 38.5795 313.506 37.8693C313.506 37.1648 313.391 36.5582 313.161 36.0497C312.931 35.5384 312.587 35.1463 312.129 34.8736C311.672 34.598 311.102 34.4602 310.421 34.4602H308.733V41.3125Z" fill="#031D5B"/>
<circle cx="241" cy="14.75" r="10" fill="#AE285D"/>
<path d="M241.256 19.8892C240.513 19.8892 239.852 19.7616 239.272 19.5064C238.695 19.2479 238.239 18.8932 237.905 18.4425C237.573 17.9884 237.403 17.4647 237.393 16.8714H239.56C239.573 17.12 239.655 17.3388 239.804 17.5277C239.956 17.7133 240.158 17.8575 240.41 17.9602C240.662 18.063 240.946 18.1143 241.26 18.1143C241.589 18.1143 241.879 18.0563 242.131 17.9403C242.382 17.8243 242.58 17.6636 242.722 17.4581C242.865 17.2526 242.936 17.0156 242.936 16.7472C242.936 16.4754 242.86 16.2351 242.707 16.0263C242.558 15.8142 242.343 15.6484 242.061 15.5291C241.783 15.4098 241.451 15.3501 241.067 15.3501H240.117V13.7692H241.067C241.391 13.7692 241.678 13.7128 241.927 13.6001C242.179 13.4875 242.374 13.3317 242.513 13.1328C242.653 12.9306 242.722 12.6953 242.722 12.4268C242.722 12.1716 242.661 11.9479 242.538 11.7557C242.419 11.5601 242.25 11.4077 242.031 11.2983C241.816 11.1889 241.564 11.1342 241.275 11.1342C240.984 11.1342 240.717 11.1873 240.475 11.2933C240.233 11.3961 240.039 11.5436 239.893 11.7358C239.747 11.928 239.67 12.1534 239.66 12.4119H237.596C237.606 11.8253 237.774 11.3082 238.099 10.8608C238.423 10.4134 238.861 10.0637 239.411 9.81179C239.965 9.55658 240.589 9.42898 241.285 9.42898C241.988 9.42898 242.603 9.55658 243.13 9.81179C243.657 10.067 244.066 10.4117 244.358 10.8459C244.653 11.2768 244.799 11.7607 244.795 12.2976C244.799 12.8677 244.621 13.3433 244.263 13.7244C243.909 14.1056 243.446 14.3475 242.876 14.4503V14.5298C243.625 14.6259 244.195 14.8861 244.586 15.3104C244.981 15.7313 245.176 16.2583 245.173 16.8913C245.176 17.4714 245.009 17.9867 244.671 18.4375C244.336 18.8883 243.874 19.2429 243.284 19.5014C242.694 19.7599 242.018 19.8892 241.256 19.8892Z" fill="white"/>
</svg>
